#!OML:ASF I:\Random Stuff\random\construction\7_22_03\Session 2\subj1.ASF
:FULLY-SPECIFIED
:DEGREES
274
root -0.142402 17.8488 -0.618663 1.26492 67.5921 -8.44019
lowerback 1.63228 0.56169 0.18827
upperback -0.47419 0.750698 -0.182663
thorax -1.39531 0.372683 -0.313611
lowerneck -21.4363 1.41376 3.75511
upperneck 45.3521 2.29237 0.330822
head 23.11 2.08228 0.257573
rclavicle -4.95968e-014 -3.97569e-015
rhumerus -32.1664 35.3314 -100.441
rradius 103.975
rwrist 11.7762
rhand -32.9181 35.3487
rfingers 7.12502
rthumb -6.13516 5.45755
lclavicle -4.95968e-014 -3.97569e-015
lhumerus -23.4677 -23.9727 97.9016
lradius 108.109
lwrist 64.6431
lhand -14.0934 72.1184
lfingers 7.12502
lthumb 12.0391 -101.752
rfemur -5.99613 11.3757 20.5276
rtibia -2.50469e-014
rfoot 0.237121 -14.2331
rtoes -18.9744
lfemur -13.3258 -18.2363 -11.6268
ltibia 18.6095
lfoot -13.8831 21.3723
ltoes -28.4289
275
root -0.14199 17.8472 -0.620521 1.02819 67.5641 -8.6585
lowerback 1.65092 0.548807 0.249751
upperback -0.480204 0.73608 -0.0938821
thorax -1.41242 0.365189 -0.257006
lowerneck -21.4061 1.37064 3.69119
upperneck 45.2784 2.25834 0.290421
head 23.0279 2.05009 0.235185
rclavicle -2.18663e-014 -1.03368e-014
rhumerus -31.9776 35.3621 -100.209
rradius 103.823
rwrist 12.946
rhand -32.7442 35.5343
rfingers 7.12502
rthumb -5.96722 5.63837
lclavicle -2.18663e-014 -1.03368e-014
lhumerus -23.5714 -24.1156 98.1285
lradius 108.374
lwrist 65.2675
lhand -14.4965 71.2227
lfingers 7.12502
lthumb 11.6504 -100.879
rfemur -5.95508 11.4055 20.6198
rtibia 2.46493e-014
rfoot 0.228809 -14.2324
rtoes -19.1364
lfemur -13.3127 -18.1848 -11.5601
ltibia 18.6824
lfoot -13.9456 21.3019
ltoes -28.1538
276
root -0.142445 17.8465 -0.624819 1.09423 67.5458 -8.59418
lowerback 1.6618 0.556341 0.287661
upperback -0.513121 0.747067 -0.0931229
thorax -1.45171 0.370244 -0.278123
lowerneck -21.3902 1.31763 3.66782
upperneck 45.2379 2.18239 0.273065
head 22.9818 2.01497 0.209007
rclavicle 1.48095e-014 0
rhumerus -31.8919 35.3649 -100.127
rradius 103.742
rwrist 13.6644
rhand -33.2865 34.9966
rfingers 7.12502
rthumb -6.49085 5.11604
lclavicle 1.48095e-014 0
lhumerus -23.6953 -24.349 98.3331
lradius 108.549
lwrist 66.5153
lhand -15.069 70.2988
lfingers 7.12502
lthumb 11.0982 -99.9853
rfemur -5.98212 11.4205 20.5753
rtibia 7.95139e-015
rfoot 0.260375 -14.2284
rtoes -19.5181
lfemur -13.3622 -18.2005 -11.5902
ltibia 18.7509
lfoot -14.0324 21.2703
ltoes -27.6726
277
root -0.143481 17.8455 -0.629211 1.11071 67.5351 -8.57245
lowerback 1.68542 0.549122 0.354607
upperback -0.541843 0.739141 -0.0894535
thorax -1.49365 0.365568 -0.312097
lowerneck -21.3994 1.29992 3.69977
upperneck 45.2501 2.17369 0.198284
head 22.999 2.00809 0.159807
rclavicle 1.20265e-014 -8.34896e-015
rhumerus -31.8897 35.458 -100.155
rradius 103.706
rwrist 13.8525
rhand -33.6274 35.048
rfingers 7.12502
rthumb -6.81993 5.17787
lclavicle 1.20265e-014 -8.34896e-015
lhumerus -23.6038 -24.0018 98.3027
lradius 108.69
lwrist 67.1777
lhand -15.2265 69.6507
lfingers 7.12502
lthumb 10.9463 -99.3454
rfemur -5.98981 11.4284 20.5508
rtibia 1.43125e-014
rfoot 0.253722 -14.2215
rtoes -19.6128
lfemur -13.3745 -18.2636 -11.6005
ltibia 18.7568
lfoot -14.044 21.2954
ltoes -27.7513
278
root -0.143888 17.8463 -0.63218 1.07582 67.5173 -8.58952
lowerback 1.70981 0.533938 0.411587
upperback -0.556344 0.720771 -0.0600997
thorax -1.52203 0.355911 -0.313784
lowerneck -21.4231 1.29237 3.70403
upperneck 45.2655 2.1896 0.132918
head 23.0248 2.00588 0.127586
rclavicle 4.2043e-014 2.38542e-015
rhumerus -31.8916 35.6382 -100.193
rradius 103.711
rwrist 13.5878
rhand -34.1002 35.2604
rfingers 7.12502
rthumb -7.27625 5.40555
lclavicle 4.2043e-014 2.38542e-015
lhumerus -23.5546 -23.7516 98.3313
lradius 108.779
lwrist 68.5721
lhand -15.7031 68.9285
lfingers 7.12502
lthumb 10.4865 -98.6469
rfemur -5.95628 11.4448 20.5495
rtibia -5.56597e-015
rfoot 0.169469 -14.2218
rtoes -19.0413
lfemur -13.3167 -18.25 -11.6111
ltibia 18.6856
lfoot -14.0338 21.2692
ltoes -27.7597
279
root -0.145476 17.8508 -0.632825 1.04461 67.4872 -8.60553
lowerback 1.75597 0.530723 0.42193
upperback -0.580841 0.717588 -0.0227965
thorax -1.57341 0.354248 -0.281938
lowerneck -21.4194 1.28049 3.65982
upperneck 45.2485 2.18171 0.143447
head 23.0059 1.99558 0.139228
rclavicle -5.71506e-015 7.55382e-015
rhumerus -31.9115 35.8466 -100.261
rradius 103.757
rwrist 13.0741
rhand -34.7807 35.0053
rfingers 7.12502
rthumb -7.93312 5.17413
lclavicle -5.71506e-015 7.55382e-015
lhumerus -23.5525 -23.5439 98.3884
lradius 108.723
lwrist 69.7438
lhand -16.0862 68.1638
lfingers 7.12502
lthumb 10.117 -97.9005
rfemur -5.93549 11.4734 20.5478
rtibia -5.96354e-015
rfoot 0.0226965 -14.2178
rtoes -17.6205
lfemur -13.2619 -18.1644 -11.6147
ltibia 18.6166
lfoot -14.0337 21.1945
ltoes -27.5121
280
root -0.147297 17.856 -0.63248 1.01235 67.4662 -8.62024
lowerback 1.75185 0.535218 0.532459
upperback -0.565664 0.725387 -0.0708722
thorax -1.55351 0.356897 -0.393186
lowerneck -21.4538 1.25955 3.64119
upperneck 45.2458 2.08096 0.281711
head 23.0098 1.97346 0.1941
rclavicle -1.46107e-014 -1.59028e-015
rhumerus -31.8285 35.9535 -100.41
rradius 103.799
rwrist 12.4473
rhand -34.782 34.4477
rfingers 7.12502
rthumb -7.93432 4.61658
lclavicle -1.46107e-014 -1.59028e-015
lhumerus -23.5726 -23.6348 98.4044
lradius 108.625
lwrist 70.9726
lhand -16.6732 67.3533
lfingers 7.12502
lthumb 9.55066 -97.1169
rfemur -5.92523 11.4911 20.5346
rtibia -4.77083e-015
rfoot -0.184761 -14.2097
rtoes -15.4338
lfemur -13.2378 -18.1145 -11.6105
ltibia 18.6022
lfoot -14.0496 21.154
ltoes -27.4285
